<?xml version="1.0" encoding="UTF-8"?>
<svg width="2255px" height="810px" viewBox="0 0 2255 810" version="1.1" xmlns="http://www.w3.org/2000/svg" xmlns:xlink="http://www.w3.org/1999/xlink">
    <!-- Generator: Sketch 61.1 (89650) - https://sketch.com -->
    <title>Incode Black</title>
    <desc>Created with Sketch.</desc>
    <g id="Incode-Black" stroke="none" stroke-width="1" fill="none" fill-rule="evenodd">
        <path d="M1169.27884,324.166451 C1208.38887,324.166451 1237.99845,335.16885 1257.94511,357.303076 C1277.80572,379.330487 1287.67874,411.060226 1287.67874,452.369896 C1287.67874,493.676877 1277.48205,525.642191 1256.9864,548.161028 C1236.43557,570.739109 1207.284,582 1169.75322,582 C1130.95968,582 1101.55631,570.902015 1081.78243,548.621602 L1079.3701,545.795559 C1061.27142,523.732821 1052.27417,492.554291 1052.27417,452.369896 C1052.27417,367.316939 1091.56311,324.166451 1169.27884,324.166451 Z M1718.13341,324.160857 C1756.0899,324.160857 1784.17251,336.547728 1802.03521,361.356294 C1818.94032,384.834922 1827.56661,417.123822 1828,458.16435 L1827.98509,466.938597 L1661.28727,466.938597 C1663.23124,488.036208 1669.73067,504.013023 1680.74368,515.053243 C1692.27046,526.621745 1708.78136,532.439004 1730.48127,532.439004 C1744.79641,532.439004 1758.42158,530.658013 1771.38576,527.081331 C1784.35271,523.53119 1795.83895,518.939073 1805.78317,513.356554 L1810.45632,510.733125 L1810.45632,564.738383 L1808.57327,565.562651 C1783.51547,576.531208 1754.80173,581.994405 1722.40284,581.994405 C1685.82182,581.994405 1656.93387,570.82603 1635.91515,548.443867 C1614.92249,526.103864 1604.46336,494.48044 1604.46336,453.79096 C1604.46336,412.175117 1614.33447,380.133776 1634.19472,357.777183 C1654.09912,335.354685 1682.16047,324.160857 1718.13341,324.160857 Z M1552.87165,230 L1552.87165,521.318062 C1552.87165,534.949252 1547.22107,546.53959 1536.08688,555.83603 C1525.27947,564.859624 1511.73484,571.48449 1495.49452,575.723438 C1479.44946,579.907729 1462.90403,581.993007 1445.84293,581.993007 C1411.26304,581.993007 1382.70325,572.157717 1360.26781,552.454863 C1337.66365,532.578429 1326.48031,498.199823 1326.48031,449.495599 C1326.48031,410.451285 1336.03499,379.782898 1355.23763,357.566839 C1374.55144,335.267804 1403.07928,324.159458 1440.62474,324.159458 C1449.41219,324.159458 1459.49757,325.280048 1470.88922,327.521467 C1480.5187,329.452121 1489.3031,332.162354 1497.25746,335.662882 L1497.25746,230 L1552.87165,230 Z M936.840542,324.62522 C962.852582,324.62522 987.605422,329.45579 1011.08678,339.113331 L1013.03449,339.914396 L1013.03449,391.497295 L1008.67541,389.654556 C984.992058,379.642762 963.420779,374.656174 943.956256,374.656174 C919.759526,374.656174 901.899352,380.657744 890.214028,392.517698 C878.541223,404.378185 872.617733,423.485641 872.617733,449.989335 C872.617733,477.812487 878.412579,497.928648 889.821001,510.400121 C901.15298,522.815608 919.602952,529.098945 945.379399,529.098945 C966.414376,529.098945 987.622412,523.984118 1009.00047,513.728015 L1013.49492,511.571805 L1013.49492,563.297977 L1011.63307,564.129419 C988.492536,574.463196 963.71553,579.619439 937.314923,579.619439 C904.686413,579.619439 877.158989,570.621423 854.841987,552.613159 L851.533529,549.84434 L849.017584,547.574681 C827.626929,527.472061 817.003542,496.134212 817.003542,453.793758 C817.003542,408.572623 828.279328,375.630585 851.013461,355.154027 C873.595046,334.801955 902.255388,324.62522 936.840542,324.62522 Z M485.519381,331.289953 L486.006345,574.870904 L429.437095,574.870904 L429.437095,331.289953 L485.519381,331.289953 Z M665.023047,324.626619 C698.934937,324.626619 724.15135,331.800791 740.627119,346.33645 C757.191929,360.963562 765.410428,383.528502 765.410428,413.84872 L765.410428,574.865309 L709.321857,574.865309 L709.321857,420.520446 C709.321857,389.052777 691.990613,373.720454 656.009809,373.720454 C640.976903,373.720454 626.512602,375.852903 612.623155,380.115604 L607.441571,381.813974 L607.441571,574.865309 L551.339047,574.865309 L551.339047,350.561213 L553.051443,349.685246 C567.520549,342.283653 585.067156,336.264453 605.745795,331.585378 L612.591378,330.124362 C630.749603,326.459668 648.220407,324.626619 665.023047,324.626619 Z M1169.27884,372.281207 C1147.14309,372.281207 1131.59474,378.929276 1122.26861,392.128097 C1112.73517,405.633707 1107.90231,425.704992 1107.90231,452.369896 C1107.90231,479.034404 1112.88533,499.249696 1122.73545,513.076617 C1132.37091,526.607452 1147.77178,533.395705 1169.27884,533.395705 C1210.99304,533.395705 1231.60412,506.89445 1231.60412,452.369896 C1231.60412,425.107853 1226.5482,404.912143 1216.5878,391.73673 C1206.797,378.798799 1191.11626,372.281207 1169.27884,372.281207 Z M1447.74046,373.239306 C1404.69533,373.239306 1383.50369,398.518297 1383.50369,450.460692 C1383.50369,476.513004 1388.42244,496.752786 1398.16426,511.226751 C1407.62244,525.337903 1424.32303,532.437606 1448.68922,532.437606 C1462.95121,532.437606 1474.85571,530.753137 1484.41631,527.397321 C1492.53343,524.548169 1496.55929,521.218734 1497.1739,517.566486 L1497.25746,516.562534 L1497.25746,385.71623 L1493.71227,383.853573 C1487.70671,380.86954 1481.21669,378.488717 1474.24421,376.723004 C1465.13041,374.40137 1456.29405,373.239306 1447.74046,373.239306 Z M1716.71027,371.35248 C1700.67438,371.35248 1688.33228,375.519429 1679.47924,383.80703 C1671.68239,391.105901 1666.18264,403.107323 1663.09146,419.87204 L1662.46597,423.537409 L1770.57754,423.537409 L1770.01855,419.788045 C1767.40477,403.861629 1762.3037,392.10372 1754.79449,384.427005 C1746.2765,375.745008 1733.63647,371.35248 1716.71027,371.35248 Z M487.42319,246.627564 L487.42319,298.099164 L428,298.099164 L428,246.627564 L487.42319,246.627564 Z" id="Combined-Shape" fill="#21273B"></path>
    </g>
</svg>